<svg width="2063" height="283" viewBox="0 0 2063 283" fill="none" xmlns="http://www.w3.org/2000/svg">
<rect width="2063" height="283" fill="#E5E5E5"/>
<circle cx="140.5" cy="142.5" r="140.5" fill="#5B36C7"/>
<path d="M207.367 177.604C205.17 196.402 198.212 210.929 186.493 221.183C174.856 231.355 159.353 236.441 139.984 236.441C118.988 236.441 102.143 228.914 89.4473 213.858C76.8333 198.803 70.5264 178.661 70.5264 153.434V136.344C70.5264 119.824 73.4561 105.297 79.3154 92.7646C85.2562 80.2321 93.6383 70.6292 104.462 63.9561C115.285 57.2015 127.818 53.8242 142.06 53.8242C160.94 53.8242 176.076 59.1139 187.47 69.6934C198.863 80.1914 205.495 94.7585 207.367 113.395H183.808C181.773 99.2344 177.338 88.9805 170.502 82.6328C163.747 76.2852 154.267 73.1113 142.06 73.1113C127.086 73.1113 115.326 78.6452 106.781 89.7129C98.3177 100.781 94.0859 116.528 94.0859 136.954V154.166C94.0859 173.453 98.1143 188.793 106.171 200.187C114.228 211.58 125.499 217.276 139.984 217.276C153.005 217.276 162.974 214.347 169.892 208.487C176.89 202.547 181.529 192.252 183.808 177.604H207.367Z" fill="white"/>
<circle cx="734.5" cy="142.5" r="140.5" fill="#7EE11B"/>
<path d="M735.815 160.101H694.067V232H670.508V54.2656H729.346C749.365 54.2656 764.746 58.8229 775.488 67.9375C786.312 77.0521 791.724 90.3171 791.724 107.732C791.724 118.8 788.713 128.444 782.69 136.663C776.75 144.882 768.449 151.027 757.788 155.096L799.536 230.535V232H774.39L735.815 160.101ZM694.067 140.936H730.078C741.715 140.936 750.952 137.924 757.788 131.902C764.705 125.88 768.164 117.824 768.164 107.732C768.164 96.7461 764.868 88.3232 758.276 82.4639C751.766 76.6045 742.326 73.6341 729.956 73.5527H694.067V140.936Z" fill="white"/>
<circle cx="1922.5" cy="142.5" r="140.5" fill="#79FFDF"/>
<path d="M1920.83 145.499L1967.22 56.2656H1993.83L1932.55 167.716V234H1909.11V167.716L1847.83 56.2656H1874.69L1920.83 145.499Z" fill="white"/>
<circle cx="1625.5" cy="142.5" r="140.5" fill="#FFF500"/>
<path d="M1692.43 79.5527H1635.3V238H1611.99V79.5527H1554.98V60.2656H1692.43V79.5527Z" fill="white"/>
<circle cx="1328.5" cy="140.5" r="140.5" fill="#0C50FF"/>
<path d="M1332 152.776C1311.9 146.998 1297.25 139.918 1288.05 131.536C1278.94 123.073 1274.38 112.656 1274.38 100.286C1274.38 86.2887 1279.96 74.7327 1291.1 65.6182C1302.33 56.4222 1316.9 51.8242 1334.81 51.8242C1347.01 51.8242 1357.88 54.1842 1367.4 58.9043C1377 63.6243 1384.41 70.1348 1389.62 78.4355C1394.9 86.7363 1397.55 95.8102 1397.55 105.657H1373.99C1373.99 94.915 1370.57 86.4922 1363.74 80.3887C1356.9 74.2038 1347.26 71.1113 1334.81 71.1113C1323.25 71.1113 1314.22 73.6748 1307.71 78.8018C1301.28 83.8473 1298.06 90.8867 1298.06 99.9199C1298.06 107.163 1301.11 113.307 1307.22 118.353C1313.4 123.317 1323.86 127.874 1338.59 132.024C1353.4 136.175 1364.96 140.773 1373.26 145.818C1381.64 150.783 1387.82 156.601 1391.81 163.274C1395.88 169.948 1397.92 177.801 1397.92 186.834C1397.92 201.238 1392.3 212.794 1381.07 221.502C1369.84 230.128 1354.83 234.441 1336.03 234.441C1323.82 234.441 1312.43 232.122 1301.85 227.483C1291.27 222.763 1283.09 216.334 1277.31 208.196C1271.61 200.058 1268.77 190.822 1268.77 180.486H1292.33C1292.33 191.229 1296.27 199.733 1304.17 205.999C1312.14 212.184 1322.76 215.276 1336.03 215.276C1348.4 215.276 1357.88 212.754 1364.47 207.708C1371.06 202.662 1374.36 195.786 1374.36 187.078C1374.36 178.37 1371.3 171.657 1365.2 166.937C1359.1 162.135 1348.03 157.415 1332 152.776Z" fill="white"/>
<circle cx="1031.5" cy="142.5" r="140.5" fill="#FA2E2E"/>
<path d="M1037.78 232H1014.34V54.2656H1037.78V232Z" fill="white"/>
<circle cx="437.5" cy="140.5" r="140.5" fill="#FF6B00"/>
<path d="M510.227 232H486.667V149.847H397.067V232H373.63V54.2656H397.067V130.682H486.667V54.2656H510.227V232Z" fill="white"/>
</svg>
